<svg version="1.1" id="レイヤー_1" xmlns="http://www.w3.org/2000/svg" xmlns:xlink="http://www.w3.org/1999/xlink" x="0px" y="0px" viewBox="0 0 180 34.6" style="enable-background:new 0 0 180 34.6;" xml:space="preserve">
                        <style type="text/css">
                            .st0{fill:url(#SVGID_1_);}
                            .st1{fill:#003C3C;}
                        </style>
                        <title>logo</title>
                        <linearGradient id="SVGID_1_" gradientUnits="userSpaceOnUse" x1="28.0986" y1="8.2148" x2="6.5519" y2="26.2946">
                            <stop offset="0" style="stop-color:#50FEBE"></stop>
                            <stop offset="1" style="stop-color:#0ADCDC"></stop>
                        </linearGradient>
                        <path class="st0" d="M18.4,0.7c0-0.3,0.1-0.6,0.2-0.7l16,16c-0.1,0.1-0.2,0.2-0.4,0.2h-5.8c-0.9-0.1-2-0.6-2.6-1.2l-6.2-6.2  c-0.7-0.7-1.2-2-1.2-2.9L18.4,0.7z M28.7,18.5c-0.9,0-2.3,0.5-2.9,1.2l-6.2,6.2c-0.7,0.7-1.2,2-1.2,2.9l0,3.9V34  c0,0.3,0.1,0.4,0.2,0.6l16-16c-0.1-0.1-0.4-0.1-0.6-0.1L28.7,18.5z M5.8,16.2c0.9,0,2.3-0.5,2.9-1.2L15,8.8c0.7-0.7,1.2-2,1.2-2.9  l0-5.2c0-0.3-0.1-0.6-0.2-0.7L0,16c0.1,0.1,0.4,0.2,0.7,0.2L5.8,16.2z M16.1,28.8c0-0.9-0.5-2.3-1.2-2.9l-6.2-6.2  c-0.7-0.7-2-1.2-2.9-1.2l-5.2,0c-0.3,0-0.5,0-0.6,0.1l16,16c0.1-0.1,0.1-0.3,0.1-0.6L16.1,28.8z M24.2,16.6L18,10.4  c-0.4-0.4-1-0.4-1.4,0l-6.2,6.2c-0.4,0.4-0.4,1,0,1.4l6.2,6.2c0.4,0.4,1,0.4,1.4,0l6.2-6.2C24.6,17.7,24.6,17,24.2,16.6z"></path>
                        <path class="st1" d="M45.1,17.8c0-1,0.2-2,0.5-3c0.4-1,0.9-1.9,1.5-2.7c0.7-0.8,1.5-1.4,2.5-1.9c1-0.5,2.1-0.7,3.3-0.7  c1.5,0,2.7,0.3,3.8,1c1,0.7,1.8,1.5,2.3,2.6l-1,0.6c-0.3-0.6-0.6-1.1-1-1.4c-0.4-0.4-0.8-0.7-1.3-0.9c-0.5-0.2-0.9-0.4-1.4-0.5  c-0.5-0.1-1-0.2-1.5-0.2c-1.1,0-2,0.2-2.8,0.6c-0.8,0.4-1.5,1-2.1,1.7c-0.6,0.7-1,1.5-1.3,2.3c-0.3,0.9-0.4,1.7-0.4,2.6  c0,1,0.2,1.9,0.5,2.8c0.3,0.9,0.8,1.7,1.4,2.3c0.6,0.7,1.3,1.2,2.1,1.6c0.8,0.4,1.7,0.6,2.6,0.6c0.5,0,1-0.1,1.5-0.2  c0.5-0.1,1-0.3,1.5-0.6c0.5-0.3,0.9-0.6,1.4-1c0.4-0.4,0.8-0.9,1.1-1.5l1,0.5c-0.3,0.6-0.7,1.2-1.1,1.7c-0.5,0.5-1,0.9-1.6,1.2  c-0.6,0.3-1.2,0.6-1.9,0.7c-0.7,0.2-1.3,0.2-1.9,0.2c-1.1,0-2.2-0.2-3.1-0.7c-0.9-0.5-1.8-1.1-2.4-1.9c-0.7-0.8-1.2-1.7-1.6-2.7  C45.3,19.9,45.1,18.8,45.1,17.8z M70,26.4c-0.9,0-1.6-0.2-2.4-0.5c-0.7-0.3-1.4-0.8-1.9-1.4c-0.5-0.6-0.9-1.2-1.2-2  C64.2,21.8,64,21,64,20.1c0-0.9,0.2-1.7,0.5-2.4c0.3-0.8,0.7-1.4,1.2-2c0.5-0.6,1.2-1,1.9-1.4c0.7-0.3,1.5-0.5,2.3-0.5  c0.8,0,1.6,0.2,2.3,0.5c0.7,0.3,1.3,0.8,1.9,1.4c0.5,0.6,1,1.2,1.3,2c0.3,0.8,0.5,1.6,0.5,2.4c0,0.8-0.2,1.6-0.5,2.4  c-0.3,0.8-0.7,1.4-1.2,2c-0.5,0.6-1.2,1-1.9,1.4C71.6,26.3,70.8,26.4,70,26.4z M65.2,20.2c0,0.7,0.1,1.4,0.4,2  c0.2,0.6,0.6,1.2,1,1.6c0.4,0.5,0.9,0.8,1.5,1.1c0.6,0.3,1.2,0.4,1.8,0.4c0.7,0,1.3-0.1,1.8-0.4c0.6-0.3,1.1-0.7,1.5-1.1  c0.4-0.5,0.8-1,1-1.7c0.2-0.6,0.4-1.3,0.4-2c0-0.7-0.1-1.4-0.4-2c-0.2-0.6-0.6-1.2-1-1.7c-0.4-0.5-0.9-0.9-1.5-1.1  c-0.6-0.3-1.2-0.4-1.8-0.4c-0.7,0-1.3,0.1-1.8,0.4c-0.6,0.3-1.1,0.7-1.5,1.1c-0.4,0.5-0.8,1-1,1.7C65.3,18.8,65.2,19.5,65.2,20.2z   M81.6,11.3V9.1h1.2v2.1H81.6z M81.6,26.2V14.1h1.2v12.1H81.6z M99.3,26.2h-1.2v-6.8c0-1.6-0.2-2.7-0.7-3.4  c-0.4-0.7-1.1-1.1-2.1-1.1c-0.5,0-1,0.1-1.5,0.3c-0.5,0.2-1,0.5-1.4,0.8c-0.4,0.3-0.8,0.7-1.1,1.2c-0.3,0.5-0.6,1-0.7,1.5v7.5h-1.2  V14.1h1.1v2.9c0.2-0.5,0.6-0.9,0.9-1.3c0.4-0.4,0.8-0.7,1.2-1c0.5-0.3,0.9-0.5,1.5-0.6c0.5-0.1,1-0.2,1.6-0.2c1.3,0,2.3,0.5,2.8,1.4  c0.5,0.9,0.8,2.3,0.8,4V26.2z M104.9,20.1c0-0.9,0.1-1.7,0.4-2.4c0.3-0.8,0.7-1.4,1.2-2c0.5-0.6,1.2-1,1.9-1.3  c0.7-0.3,1.5-0.5,2.4-0.5c1.1,0,2.1,0.2,2.9,0.7c0.8,0.5,1.5,1.2,1.9,2.1l-1.1,0.4c-0.4-0.7-0.9-1.2-1.5-1.6  c-0.7-0.4-1.4-0.6-2.2-0.6c-0.7,0-1.3,0.1-1.9,0.4c-0.6,0.3-1.1,0.6-1.5,1.1c-0.4,0.5-0.8,1-1,1.6c-0.2,0.6-0.4,1.3-0.4,2  c0,0.7,0.1,1.4,0.4,2.1c0.3,0.6,0.6,1.2,1,1.7c0.4,0.5,0.9,0.9,1.5,1.1c0.6,0.3,1.2,0.4,1.9,0.4c0.4,0,0.8-0.1,1.2-0.2  c0.4-0.1,0.8-0.3,1.1-0.5c0.4-0.2,0.7-0.4,0.9-0.7c0.3-0.3,0.4-0.6,0.5-0.9l1.1,0.3c-0.2,0.4-0.4,0.8-0.7,1.2  c-0.3,0.4-0.7,0.7-1.1,0.9c-0.4,0.3-0.9,0.5-1.4,0.6c-0.5,0.1-1.1,0.2-1.6,0.2c-0.9,0-1.7-0.2-2.4-0.5c-0.7-0.3-1.4-0.8-1.9-1.4  c-0.5-0.6-1-1.3-1.3-2C105.1,21.8,104.9,21,104.9,20.1z M131.3,26.2h-1.2v-6.8c0-3-1-4.5-3-4.5c-0.5,0-1,0.1-1.5,0.3  c-0.5,0.2-0.9,0.5-1.3,0.8c-0.4,0.3-0.8,0.7-1.1,1.2c-0.3,0.5-0.5,1-0.7,1.5v7.5h-1.2v-17h1.2v7.8c0.5-0.9,1.2-1.7,2.1-2.3  c0.9-0.6,1.8-0.8,2.8-0.8c0.7,0,1.2,0.1,1.7,0.4c0.5,0.2,0.9,0.6,1.2,1.1c0.3,0.5,0.6,1,0.7,1.7c0.1,0.7,0.2,1.4,0.2,2.2V26.2z   M142.9,26.4c-0.9,0-1.7-0.2-2.4-0.5c-0.7-0.3-1.4-0.8-1.9-1.4c-0.5-0.6-1-1.3-1.3-2c-0.3-0.8-0.5-1.6-0.5-2.5  c0-0.9,0.2-1.7,0.5-2.4c0.3-0.8,0.7-1.4,1.2-2c0.5-0.6,1.2-1,1.9-1.3c0.7-0.3,1.5-0.5,2.3-0.5c0.9,0,1.7,0.2,2.4,0.5  c0.7,0.3,1.4,0.8,1.9,1.4c0.5,0.6,0.9,1.2,1.2,2c0.3,0.8,0.4,1.6,0.4,2.4c0,0.1,0,0.2,0,0.3c0,0.1,0,0.2,0,0.2h-10.6  c0,0.7,0.2,1.4,0.5,1.9c0.3,0.6,0.6,1.1,1.1,1.6c0.4,0.4,0.9,0.8,1.5,1c0.6,0.2,1.2,0.4,1.8,0.4c0.4,0,0.8-0.1,1.2-0.2  c0.4-0.1,0.8-0.3,1.1-0.5c0.4-0.2,0.7-0.4,0.9-0.7c0.3-0.3,0.5-0.6,0.6-0.9l1,0.3c-0.2,0.4-0.4,0.8-0.8,1.2  c-0.3,0.4-0.7,0.7-1.2,0.9c-0.4,0.3-0.9,0.5-1.5,0.6C144,26.4,143.5,26.4,142.9,26.4z M147.7,19.7c0-0.7-0.2-1.4-0.5-2  c-0.3-0.6-0.6-1.1-1.1-1.5c-0.4-0.4-0.9-0.8-1.5-1c-0.6-0.2-1.2-0.4-1.8-0.4s-1.2,0.1-1.8,0.4c-0.6,0.2-1.1,0.6-1.5,1  c-0.4,0.4-0.8,0.9-1,1.5c-0.3,0.6-0.4,1.2-0.5,1.9H147.7z M153.5,20.1c0-0.9,0.1-1.7,0.4-2.4c0.3-0.8,0.7-1.4,1.2-2  c0.5-0.6,1.2-1,1.9-1.3c0.7-0.3,1.5-0.5,2.4-0.5c1.1,0,2.1,0.2,2.9,0.7c0.8,0.5,1.5,1.2,1.9,2.1l-1.1,0.4c-0.4-0.7-0.9-1.2-1.5-1.6  c-0.7-0.4-1.4-0.6-2.2-0.6c-0.7,0-1.3,0.1-1.9,0.4c-0.6,0.3-1.1,0.6-1.5,1.1c-0.4,0.5-0.8,1-1,1.6c-0.2,0.6-0.4,1.3-0.4,2  c0,0.7,0.1,1.4,0.4,2.1c0.3,0.6,0.6,1.2,1,1.7c0.4,0.5,0.9,0.9,1.5,1.1c0.6,0.3,1.2,0.4,1.9,0.4c0.4,0,0.8-0.1,1.2-0.2  c0.4-0.1,0.8-0.3,1.1-0.5c0.4-0.2,0.7-0.4,0.9-0.7c0.3-0.3,0.4-0.6,0.5-0.9l1.1,0.3c-0.2,0.4-0.4,0.8-0.7,1.2  c-0.3,0.4-0.7,0.7-1.1,0.9c-0.4,0.3-0.9,0.5-1.4,0.6c-0.5,0.1-1.1,0.2-1.6,0.2c-0.9,0-1.7-0.2-2.4-0.5c-0.7-0.3-1.4-0.8-1.9-1.4  c-0.5-0.6-1-1.3-1.3-2C153.6,21.8,153.5,21,153.5,20.1z M178.7,26.2l-4.7-6.5l-2.9,2.6v3.9h-1.2v-17h1.2v11.9l7.4-7h1.4l-5.1,4.9  l5.2,7.2H178.7z"></path>
                    </svg>